<svg width="32" height="32" viewBox="0 0 32 32" fill="none" xmlns="http://www.w3.org/2000/svg">
<path fill-rule="evenodd" clip-rule="evenodd" d="M15.3337 11.333C15.3337 12.5277 14.8843 13.6183 14.1457 14.4437C15.1825 15.1811 15.958 16.2291 16.3602 17.4361C16.7625 18.6432 16.7706 19.9469 16.3834 21.1588C15.9962 22.3708 15.2338 23.4283 14.2063 24.1787C13.1788 24.929 11.9393 25.3332 10.667 25.333H4.66699C4.13656 25.333 3.62785 25.1223 3.25278 24.7472C2.87771 24.3721 2.66699 23.8634 2.66699 23.333V7.33301C2.66699 6.80257 2.87771 6.29387 3.25278 5.91879C3.62785 5.54372 4.13656 5.33301 4.66699 5.33301H10.0003C11.4148 5.33301 12.7714 5.89491 13.7716 6.8951C14.7718 7.8953 15.3337 9.25185 15.3337 10.6663V11.333ZM5.33366 13.333V7.99967H10.0003C10.7076 7.99967 11.3858 8.28063 11.8859 8.78072C12.386 9.28082 12.667 9.9591 12.667 10.6663V11.333C12.667 11.8634 12.4563 12.3721 12.0812 12.7472C11.7061 13.1223 11.1974 13.333 10.667 13.333H5.33366ZM5.33366 15.9997H10.667C11.551 15.9997 12.3989 16.3509 13.024 16.976C13.6491 17.6011 14.0003 18.449 14.0003 19.333C14.0003 20.2171 13.6491 21.0649 13.024 21.69C12.3989 22.3152 11.551 22.6663 10.667 22.6663H5.33366V15.9997Z" fill="#A79898"/>
<path d="M20 8.00033C20 7.6467 20.1405 7.30757 20.3905 7.05752C20.6406 6.80747 20.9797 6.66699 21.3333 6.66699H26C26.3536 6.66699 26.6928 6.80747 26.9428 7.05752C27.1929 7.30757 27.3333 7.6467 27.3333 8.00033C27.3333 8.35395 27.1929 8.69309 26.9428 8.94313C26.6928 9.19318 26.3536 9.33366 26 9.33366H21.3333C20.9797 9.33366 20.6406 9.19318 20.3905 8.94313C20.1405 8.69309 20 8.35395 20 8.00033Z" fill="#A79898"/>
<path fill-rule="evenodd" clip-rule="evenodd" d="M23.667 10.667C19.879 10.667 16.667 13.5763 16.667 17.3337V18.667C16.667 22.4243 19.879 25.3337 23.667 25.3337C25.687 25.3337 27.1497 24.7523 28.1297 24.1203C28.719 23.7417 29.1817 23.2803 29.627 22.7497C29.8208 22.4587 29.8925 22.1032 29.8267 21.7598C29.7609 21.4164 29.5629 21.1127 29.2753 20.9139C28.9877 20.7151 28.6335 20.6372 28.2891 20.697C27.9446 20.7568 27.6374 20.9496 27.4337 21.2337C27.2221 21.4885 26.9698 21.7065 26.687 21.879C26.1123 22.2483 25.1457 22.667 23.667 22.667C21.1963 22.667 19.3337 20.8003 19.3337 18.667H29.3337C29.6873 18.667 30.0264 18.5265 30.2765 18.2765C30.5265 18.0264 30.667 17.6873 30.667 17.3337C30.667 13.5763 27.455 10.667 23.667 10.667ZM27.751 16.0003C27.1643 14.479 25.6017 13.3337 23.667 13.3337C21.7323 13.3337 20.1697 14.479 19.583 16.0003H27.751Z" fill="#A79898"/>
</svg>
