<svg width="70" height="70" viewBox="0 0 70 70" fill="none" xmlns="http://www.w3.org/2000/svg">
<g clip-path="url(#clip0_2040_1845)">
<path d="M65.625 65.625H4.375V70H65.625V65.625Z" fill="#F7FEFF"/>
<path d="M65.625 52.5H61.25V61.25H8.75V52.5H4.375V65.625H65.625V52.5Z" fill="#231E2B"/>
<path d="M4.375 52.5H0V65.625H4.375V52.5Z" fill="#F7FEFF"/>
<path d="M70 52.5H65.625V65.625H70V52.5Z" fill="#F7FEFF"/>
<path d="M65.625 48.125H61.25V52.5H65.625V48.125Z" fill="#F7FEFF"/>
<path d="M61.25 48.125H56.875V52.5H61.25V48.125Z" fill="#231E2B"/>
<path d="M56.875 48.125H48.125V52.5H43.75V48.125H35V52.5H30.625V48.125H26.25V52.5H21.875V48.125H13.125V52.5H8.75V61.25H61.25V52.5H56.875V48.125Z" fill="#B6B7B8"/>
<path d="M48.125 48.125H43.75V52.5H48.125V48.125Z" fill="#998B8C"/>
<path d="M35 48.125H30.625V52.5H35V48.125Z" fill="#998B8C"/>
<path d="M26.25 48.125H21.875V52.5H26.25V48.125Z" fill="#998B8C"/>
<path d="M13.125 48.125H8.75V52.5H13.125V48.125Z" fill="#231E2B"/>
<path d="M8.75 48.125H4.375V52.5H8.75V48.125Z" fill="#F7FEFF"/>
<path d="M61.25 43.75H56.875V48.125H61.25V43.75Z" fill="#F7FEFF"/>
<path d="M56.875 43.75H52.5V48.125H56.875V43.75Z" fill="#231E2B"/>
<path d="M52.5 43.75H48.125V48.125H52.5V43.75Z" fill="#998B8C"/>
<path d="M43.75 43.75H35V48.125H43.75V43.75Z" fill="#998B8C"/>
<path d="M30.625 43.75H26.25V48.125H30.625V43.75Z" fill="#998B8C"/>
<path d="M26.25 48.125V43.75H30.625V48.125H35V43.75H43.75V48.125H48.125V39.375H43.75V35H39.375V30.625H30.625V35H26.25V39.375H21.875V48.125H26.25Z" fill="#F7FEFF"/>
<path d="M21.875 43.75H17.5V48.125H21.875V43.75Z" fill="#998B8C"/>
<path d="M17.5 43.75H13.125V48.125H17.5V43.75Z" fill="#231E2B"/>
<path d="M13.125 43.75H8.75V48.125H13.125V43.75Z" fill="#F7FEFF"/>
<path d="M56.875 39.375H52.5V43.75H56.875V39.375Z" fill="#F7FEFF"/>
<path d="M52.5 39.375H48.125V43.75H52.5V39.375Z" fill="#231E2B"/>
<path d="M21.875 39.375H17.5V43.75H21.875V39.375Z" fill="#231E2B"/>
<path d="M17.5 39.375H13.125V43.75H17.5V39.375Z" fill="#F7FEFF"/>
<path d="M52.5 35H48.125V39.375H52.5V35Z" fill="#F7FEFF"/>
<path d="M48.125 35H43.75V39.375H48.125V35Z" fill="#231E2B"/>
<path d="M26.25 35H21.875V39.375H26.25V35Z" fill="#231E2B"/>
<path d="M21.875 35H17.5V39.375H21.875V35Z" fill="#F7FEFF"/>
<path d="M48.125 30.625H43.75V35H48.125V30.625Z" fill="#F7FEFF"/>
<path d="M43.75 30.625H39.375V35H43.75V30.625Z" fill="#231E2B"/>
<path d="M26.25 4.375H21.875V35H26.25V4.375Z" fill="#F7FEFF"/>
<path d="M35 26.25H30.625V30.625H35V26.25Z" fill="#CF8934"/>
<path d="M39.375 21.875V30.625H43.75V26.25H48.125V21.875H39.375Z" fill="#F7FEFF"/>
<path d="M35 17.5H30.625V26.25H35V17.5Z" fill="#E2B436"/>
<path d="M43.75 8.75H35V17.5H43.75V8.75Z" fill="#B0392E"/>
<path d="M35 8.75H30.625V17.5H35V8.75Z" fill="#892727"/>
<path d="M52.5 4.375H48.125V21.875H52.5V4.375Z" fill="#F7FEFF"/>
<path d="M26.25 35H30.625V8.75H43.75V17.5H35V30.625H39.375V21.875H48.125V4.375H26.25V35Z" fill="#231E2B"/>
<path d="M48.125 0H26.25V4.375H48.125V0Z" fill="#F7FEFF"/>
</g>
<defs>
<clipPath id="clip0_2040_1845">
<rect width="70" height="70" fill="white"/>
</clipPath>
</defs>
</svg>
