<svg width="70" height="70" viewBox="0 0 70 70" fill="none" xmlns="http://www.w3.org/2000/svg">
<g clip-path="url(#clip0_2040_1779)">
<path d="M48.125 65.625H21.875V70H48.125V65.625Z" fill="#F7FEFF"/>
<path d="M52.5 56.875H48.125V65.625H52.5V56.875Z" fill="#F7FEFF"/>
<path d="M43.75 61.25H26.25V56.875H21.875V65.625H48.125V56.875H43.75V61.25Z" fill="#231E2B"/>
<path d="M43.75 56.875H39.375V61.25H43.75V56.875Z" fill="#F5F38E"/>
<path d="M39.375 56.875H30.625V61.25H39.375V56.875Z" fill="#E2B436"/>
<path d="M30.625 56.875H26.25V61.25H30.625V56.875Z" fill="#F5F38E"/>
<path d="M21.875 56.875H17.5V65.625H21.875V56.875Z" fill="#F7FEFF"/>
<path d="M26.25 43.75H21.875V56.875H26.25V43.75Z" fill="#F7FEFF"/>
<path d="M35 52.5H30.625V56.875H39.375V48.125H35V52.5Z" fill="#F5F38E"/>
<path d="M35 48.125H30.625V52.5H35V48.125Z" fill="#E2B436"/>
<path d="M48.125 43.75H43.75V56.875H48.125V43.75Z" fill="#F7FEFF"/>
<path d="M26.25 56.875H30.625V39.375H21.875V43.75H26.25V56.875Z" fill="#231E2B"/>
<path d="M56.875 39.375H48.125V43.75H56.875V39.375Z" fill="#F7FEFF"/>
<path d="M39.375 39.375V56.875H43.75V43.75H48.125V39.375H39.375Z" fill="#231E2B"/>
<path d="M39.375 39.375H30.625V48.125H39.375V39.375Z" fill="#CF8934"/>
<path d="M21.875 39.375H13.125V43.75H21.875V39.375Z" fill="#F7FEFF"/>
<path d="M61.25 35H56.875V39.375H61.25V35Z" fill="#F7FEFF"/>
<path d="M56.875 35H48.125V39.375H56.875V35Z" fill="#231E2B"/>
<path d="M48.125 35H43.75V39.375H48.125V35Z" fill="#CF8934"/>
<path d="M39.375 35V30.625H43.75V13.125H17.5V30.625H21.875V35H26.25V39.375H43.75V35H39.375Z" fill="#E2B436"/>
<path d="M26.25 35H21.875V39.375H26.25V35Z" fill="#CF8934"/>
<path d="M21.875 35H13.125V39.375H21.875V35Z" fill="#231E2B"/>
<path d="M13.125 35H8.75V39.375H13.125V35Z" fill="#F7FEFF"/>
<path d="M65.625 30.625H61.25V35H65.625V30.625Z" fill="#F7FEFF"/>
<path d="M61.25 30.625H56.875V35H61.25V30.625Z" fill="#231E2B"/>
<path d="M56.875 30.625H48.125V35H56.875V30.625Z" fill="#CF8934"/>
<path d="M48.125 30.625H43.75V35H48.125V30.625Z" fill="#E2B436"/>
<path d="M43.75 30.625H39.375V35H43.75V30.625Z" fill="#F5F38E"/>
<path d="M21.875 30.625H13.125V35H21.875V30.625Z" fill="#CF8934"/>
<path d="M13.125 30.625H8.75V35H13.125V30.625Z" fill="#231E2B"/>
<path d="M8.75 30.625H4.375V35H8.75V30.625Z" fill="#F7FEFF"/>
<path d="M61.25 26.25H56.875V30.625H61.25V26.25Z" fill="#CF8934"/>
<path d="M17.5 17.5H13.125V30.625H17.5V17.5Z" fill="#231E2B"/>
<path d="M13.125 26.25H8.75V30.625H13.125V26.25Z" fill="#CF8934"/>
<path d="M8.75 13.125H4.375V30.625H8.75V13.125Z" fill="#231E2B"/>
<path d="M65.625 13.125H61.25V30.625H65.625V13.125Z" fill="#231E2B"/>
<path d="M56.875 17.5H52.5V30.625H56.875V17.5Z" fill="#231E2B"/>
<path d="M13.125 17.5H8.75V26.25H13.125V17.5Z" fill="#E2B436"/>
<path d="M4.375 13.125H0V30.625H4.375V13.125Z" fill="#F7FEFF"/>
<path d="M61.25 17.5H56.875V26.25H61.25V17.5Z" fill="#E2B436"/>
<path d="M70 13.125H65.625V30.625H70V13.125Z" fill="#F7FEFF"/>
<path d="M61.25 13.125H56.875V17.5H61.25V13.125Z" fill="#F5F38E"/>
<path d="M56.875 13.125H52.5V17.5H56.875V13.125Z" fill="#CF8934"/>
<path d="M52.5 13.125H48.125V30.625H52.5V13.125Z" fill="#E2B436"/>
<path d="M17.5 13.125H13.125V17.5H17.5V13.125Z" fill="#CF8934"/>
<path d="M13.125 13.125H8.75V17.5H13.125V13.125Z" fill="#F5F38E"/>
<path d="M65.625 8.75H61.25V13.125H65.625V8.75Z" fill="#F7FEFF"/>
<path d="M61.25 8.75H52.5V13.125H61.25V8.75Z" fill="#231E2B"/>
<path d="M43.75 13.125V30.625H48.125V13.125H52.5V8.75H17.5V13.125H43.75Z" fill="#F5F38E"/>
<path d="M17.5 8.75H8.75V13.125H17.5V8.75Z" fill="#231E2B"/>
<path d="M8.75 8.75H4.375V13.125H8.75V8.75Z" fill="#F7FEFF"/>
<path d="M61.25 4.375H52.5V8.75H61.25V4.375Z" fill="#F7FEFF"/>
<path d="M52.5 4.375H17.5V8.75H52.5V4.375Z" fill="#231E2B"/>
<path d="M17.5 4.375H8.75V8.75H17.5V4.375Z" fill="#F7FEFF"/>
<path d="M52.5 0H17.5V4.375H52.5V0Z" fill="#F7FEFF"/>
</g>
<defs>
<clipPath id="clip0_2040_1779">
<rect width="70" height="70" fill="white"/>
</clipPath>
</defs>
</svg>
