<svg width="70" height="70" viewBox="0 0 70 70" fill="none" xmlns="http://www.w3.org/2000/svg">
<g clip-path="url(#clip0_2040_1898)">
<path d="M56.875 65.625H52.5V70H56.875V65.625Z" fill="#F7FEFF"/>
<path d="M17.5 65.625H13.125V70H17.5V65.625Z" fill="#F7FEFF"/>
<path d="M61.25 61.25H56.875V65.625H61.25V61.25Z" fill="#F7FEFF"/>
<path d="M56.875 61.25H52.5V65.625H56.875V61.25Z" fill="#231E2B"/>
<path d="M52.5 61.25H43.75V65.625H52.5V61.25Z" fill="#F7FEFF"/>
<path d="M26.25 61.25H17.5V65.625H26.25V61.25Z" fill="#F7FEFF"/>
<path d="M17.5 61.25H13.125V65.625H17.5V61.25Z" fill="#231E2B"/>
<path d="M13.125 61.25H8.75V65.625H13.125V61.25Z" fill="#F7FEFF"/>
<path d="M65.625 52.5H61.25V61.25H65.625V52.5Z" fill="#F7FEFF"/>
<path d="M56.875 56.875H52.5V61.25H56.875V56.875Z" fill="#E2B436"/>
<path d="M52.5 56.875H43.75V61.25H52.5V56.875Z" fill="#231E2B"/>
<path d="M43.75 56.875H26.25V61.25H43.75V56.875Z" fill="#F7FEFF"/>
<path d="M26.25 56.875H17.5V61.25H26.25V56.875Z" fill="#231E2B"/>
<path d="M17.5 56.875H13.125V61.25H17.5V56.875Z" fill="#CF8934"/>
<path d="M13.125 52.5H8.75V61.25H13.125V52.5Z" fill="#231E2B"/>
<path d="M61.25 52.5H56.875V61.25H61.25V52.5Z" fill="#231E2B"/>
<path d="M56.875 52.5H52.5V56.875H56.875V52.5Z" fill="#F5F38E"/>
<path d="M52.5 52.5H48.125V56.875H52.5V52.5Z" fill="#E2B436"/>
<path d="M48.125 52.5H43.75V56.875H48.125V52.5Z" fill="#CF8934"/>
<path d="M43.75 52.5H26.25V56.875H43.75V52.5Z" fill="#231E2B"/>
<path d="M26.25 52.5H21.875V56.875H26.25V52.5Z" fill="#CF8934"/>
<path d="M21.875 52.5H17.5V56.875H21.875V52.5Z" fill="#E2B436"/>
<path d="M17.5 52.5H13.125V56.875H17.5V52.5Z" fill="#F5F38E"/>
<path d="M8.75 52.5H4.375V61.25H8.75V52.5Z" fill="#F7FEFF"/>
<path d="M39.375 48.125H26.25V52.5H39.375V48.125Z" fill="#CF8934"/>
<path d="M17.5 35H13.125V52.5H17.5V35Z" fill="#231E2B"/>
<path d="M13.125 35H8.75V52.5H13.125V35Z" fill="#F7FEFF"/>
<path d="M52.5 43.75H48.125V52.5H52.5V43.75Z" fill="#F5F38E"/>
<path d="M21.875 43.75H17.5V52.5H21.875V43.75Z" fill="#F5F38E"/>
<path d="M26.25 43.75V39.375H21.875V35H17.5V43.75H26.25Z" fill="#CF8934"/>
<path d="M61.25 35H56.875V52.5H61.25V35Z" fill="#F7FEFF"/>
<path d="M56.875 35H52.5V52.5H56.875V35Z" fill="#231E2B"/>
<path d="M48.125 39.375H43.75V43.75H52.5V35H48.125V39.375Z" fill="#CF8934"/>
<path d="M65.625 30.625H61.25V35H65.625V30.625Z" fill="#F7FEFF"/>
<path d="M61.25 30.625H56.875V35H61.25V30.625Z" fill="#231E2B"/>
<path d="M56.875 30.625H52.5V35H56.875V30.625Z" fill="#CF8934"/>
<path d="M17.5 30.625V35H21.875V39.375H26.25V43.75H21.875V52.5H26.25V48.125H39.375V52.5H48.125V43.75H43.75V39.375H48.125V35H52.5V30.625H48.125V26.25H43.75V21.875H39.375V17.5H30.625V21.875H26.25V26.25H21.875V30.625H17.5Z" fill="#E2B436"/>
<path d="M17.5 30.625H13.125V35H17.5V30.625Z" fill="#CF8934"/>
<path d="M13.125 30.625H8.75V35H13.125V30.625Z" fill="#231E2B"/>
<path d="M8.75 30.625H4.375V35H8.75V30.625Z" fill="#F7FEFF"/>
<path d="M70 26.25H65.625V30.625H70V26.25Z" fill="#F7FEFF"/>
<path d="M65.625 26.25H61.25V30.625H65.625V26.25Z" fill="#231E2B"/>
<path d="M61.25 26.25H48.125V30.625H61.25V26.25Z" fill="#F5F38E"/>
<path d="M21.875 26.25H8.75V30.625H21.875V26.25Z" fill="#F5F38E"/>
<path d="M8.75 26.25H4.375V30.625H8.75V26.25Z" fill="#231E2B"/>
<path d="M4.375 26.25H0V30.625H4.375V26.25Z" fill="#F7FEFF"/>
<path d="M65.625 21.875H61.25V26.25H65.625V21.875Z" fill="#F7FEFF"/>
<path d="M61.25 21.875H48.125V26.25H61.25V21.875Z" fill="#231E2B"/>
<path d="M48.125 21.875H43.75V26.25H48.125V21.875Z" fill="#F5F38E"/>
<path d="M26.25 21.875H21.875V26.25H26.25V21.875Z" fill="#CF8934"/>
<path d="M21.875 21.875H8.75V26.25H21.875V21.875Z" fill="#231E2B"/>
<path d="M8.75 21.875H4.375V26.25H8.75V21.875Z" fill="#F7FEFF"/>
<path d="M61.25 17.5H48.125V21.875H61.25V17.5Z" fill="#F7FEFF"/>
<path d="M48.125 17.5H43.75V21.875H48.125V17.5Z" fill="#231E2B"/>
<path d="M43.75 17.5H39.375V21.875H43.75V17.5Z" fill="#F5F38E"/>
<path d="M30.625 17.5H26.25V21.875H30.625V17.5Z" fill="#CF8934"/>
<path d="M26.25 17.5H21.875V21.875H26.25V17.5Z" fill="#231E2B"/>
<path d="M21.875 17.5H8.75V21.875H21.875V17.5Z" fill="#F7FEFF"/>
<path d="M48.125 8.75H43.75V17.5H48.125V8.75Z" fill="#F7FEFF"/>
<path d="M39.375 17.5V8.75H35V13.125H30.625V17.5H39.375Z" fill="#F5F38E"/>
<path d="M30.625 13.125H26.25V17.5H30.625V13.125Z" fill="#231E2B"/>
<path d="M26.25 13.125H21.875V17.5H26.25V13.125Z" fill="#F7FEFF"/>
<path d="M43.75 8.75H39.375V17.5H43.75V8.75Z" fill="#231E2B"/>
<path d="M35 8.75H30.625V13.125H35V8.75Z" fill="#231E2B"/>
<path d="M30.625 8.75H26.25V13.125H30.625V8.75Z" fill="#F7FEFF"/>
<path d="M43.75 4.375H39.375V8.75H43.75V4.375Z" fill="#F7FEFF"/>
<path d="M39.375 4.375H35V8.75H39.375V4.375Z" fill="#231E2B"/>
<path d="M35 4.375H30.625V8.75H35V4.375Z" fill="#F7FEFF"/>
<path d="M39.375 0H35V4.375H39.375V0Z" fill="#F7FEFF"/>
</g>
<defs>
<clipPath id="clip0_2040_1898">
<rect width="70" height="70" fill="white"/>
</clipPath>
</defs>
</svg>
