<svg width="121" height="67" viewBox="0 0 121 67" fill="none" xmlns="http://www.w3.org/2000/svg">
<g opacity="0.8">
<g clip-path="url(#clip0_1543_1019)">
<path d="M16.9913 9.77441H14.8965V11.9852H16.9913V9.77441Z" fill="black"/>
<path d="M21.1808 9.7741H23.2757V7.67969H21.1808H19.086H16.9912V9.7741H19.086H21.1808Z" fill="black"/>
<path d="M25.4874 9.77441H23.3926V11.9852H25.4874V9.77441Z" fill="black"/>
<path d="M27.5821 11.9854H25.4873V14.0798H27.5821V11.9854Z" fill="black"/>
<path d="M29.6768 9.77441H27.582V11.9852H29.6768V9.77441Z" fill="black"/>
<path d="M33.9828 7.67969H31.7716H31.5388H29.6768V9.7741H31.5388H31.7716H33.9828H36.0776V7.67969H33.9828Z" fill="black"/>
<path d="M38.172 9.77441H36.0771V11.9852H38.172V9.77441Z" fill="black"/>
<path d="M38.1729 11.9854V14.0798V16.1742V20.4793H40.384V16.1742V14.0798V11.9854H38.1729Z" fill="black"/>
<path d="M38.172 20.4785H36.0771V22.5729H38.172V20.4785Z" fill="black"/>
<path d="M36.0782 22.5732H33.9834V24.6677H36.0782V22.5732Z" fill="black"/>
<path d="M33.9827 24.668H31.7715V26.7624H33.9827V24.668Z" fill="black"/>
<path d="M31.7716 26.7617H29.6768V28.8561H31.7716V26.7617Z" fill="black"/>
<path d="M29.6768 28.9727H27.582V31.0671H29.6768V28.9727Z" fill="black"/>
<path d="M27.5821 31.0674H25.4873V33.1618H27.5821V31.0674Z" fill="black"/>
<path d="M25.4874 28.9727H23.3926V31.0671H25.4874V28.9727Z" fill="black"/>
<path d="M23.3928 26.7617H21.1816V28.9725H23.3928V26.7617Z" fill="black"/>
<path d="M21.1808 24.668H19.0859V26.7624H21.1808V24.668Z" fill="black"/>
<path d="M19.086 22.5732H16.9912V24.6677H19.086V22.5732Z" fill="black"/>
<path d="M16.9913 20.4785H14.8965V22.5729H16.9913V20.4785Z" fill="black"/>
<path d="M14.8967 18.2686V16.1742V14.0798V11.9854H12.6855V14.0798V16.1742V18.2686V20.363H14.8967V18.2686Z" fill="black"/>
<path d="M16.9913 11.9854H14.8965V14.0798H16.9913V11.9854Z" fill="white"/>
<path d="M36.0774 11.9852V9.77441H33.9826H31.7714H31.3058H29.6765V11.9852H27.5817V14.0796H25.4869V11.9852H23.3921V9.77441H21.1809H19.0861V11.9852H16.9913V14.0796H14.8965V20.4792H16.9913V22.5736H19.0861V24.668H21.1809V26.7624H23.3921V28.9731H25.4869V31.0676H27.5817V28.9731H29.6765V26.7624H31.7714V24.668H33.9826V22.5736H36.0774V20.4792H38.1722V11.9852H36.0774Z" fill="#CE0002"/>
<path d="M19.086 9.77441H16.9912V11.8688H19.086V9.77441Z" fill="white"/>
<path d="M70.06 11.9849V9.77409H67.9652V7.67969H65.8703H63.7755H61.6807V9.77409H59.4695V11.9849H57.3747V9.77409H55.1635V7.67969H53.0687H50.9739H48.8791V9.77409H50.9739V11.9849H48.8791V14.0793H46.7843V11.9849H48.8791V9.77409H46.7843V11.9849H44.6895V14.0793V16.1737V18.2681V20.3625H46.7843V22.5733H48.8791V20.3625H46.7843V18.2681H48.8791H50.9739H53.0687H55.1635H57.3747H59.4695H61.5643H63.7755H65.8703H67.9652H70.06V20.3625H67.9652V22.5733H70.06V20.3625H72.2712V18.2681V16.1737V14.0793V11.9849H70.06Z" fill="black"/>
<path d="M67.9649 22.5732H65.8701V24.6677H67.9649V22.5732Z" fill="black"/>
<path d="M65.8702 24.668H63.7754V26.7624H65.8702V24.668Z" fill="black"/>
<path d="M63.7757 26.7617H61.5645V28.8561H63.7757V26.7617Z" fill="black"/>
<path d="M61.5645 28.8564H59.4697V31.0672H61.5645V28.8564Z" fill="black"/>
<path d="M59.4698 31.0674H57.375V33.1618H59.4698V31.0674Z" fill="black"/>
<path d="M57.3743 28.8564H55.1631V31.0672H57.3743V28.8564Z" fill="black"/>
<path d="M55.1632 26.7617H53.0684V28.8561H55.1632V26.7617Z" fill="black"/>
<path d="M53.0684 24.668H50.9736V26.7624H53.0684V24.668Z" fill="black"/>
<path d="M50.9737 22.5732H48.8789V24.6677H50.9737V22.5732Z" fill="black"/>
<path d="M48.88 11.9854H46.7852V14.0798H48.88V11.9854Z" fill="white"/>
<path d="M67.966 18.2686H65.8712H63.7764H61.5652H59.4704H57.3756H55.1644H53.0696H50.9748H48.88H46.7852V20.363H48.88V22.5737H50.9748V24.6681H53.0696V26.7625H55.1644V28.8569H57.3756V31.0677H59.4704V28.8569H61.5652V26.7625H63.7764V24.6681H65.8712V22.5737H67.966V20.363H70.0608V18.2686H67.966Z" fill="#CE0002"/>
<path d="M50.9737 9.77441H48.8789V11.8688H50.9737V9.77441Z" fill="white"/>
<path d="M80.7667 9.89062H78.6719V11.985H80.7667V9.89062Z" fill="black"/>
<path d="M101.948 11.9849V9.77409H99.8528V7.67969H97.758H95.6632H93.5684V9.77409H91.3572V11.9849H89.2624V9.77409H87.1676V7.79604H84.9564H84.6073H82.8616H80.7668V9.89045H82.8616V11.9849H80.7668V14.0793H78.672V11.9849H76.5771V14.0793V16.1737V18.2681V20.3625H78.672V22.5732H80.7668V24.6677H82.8616V26.7621H84.2581H84.9564H85.0728V28.8565H87.1676V31.0672H89.2624V33.1616H91.3572V31.0672H89.2624V28.8565H87.1676V26.7621H89.2624H91.3572H93.452V28.8565H91.3572V31.0672H93.452V28.8565H95.6632V26.7621H97.758V24.6677H99.8528V22.5732H101.948V20.3625H104.159V18.2681V16.1737V14.0793V11.9849H101.948Z" fill="black"/>
<path d="M80.7667 11.9854H78.6719V14.0798H80.7667V11.9854Z" fill="white"/>
<path d="M91.3575 28.8564H89.2627V31.0672H91.3575V28.8564Z" fill="#CE0002"/>
<path d="M89.2628 26.7617H87.168V28.8561H89.2628V26.7617Z" fill="#CE0002"/>
<path d="M91.3575 26.7617H89.2627V28.8561H91.3575V26.7617Z" fill="#CE0002"/>
<path d="M93.4522 26.7617H91.3574V28.8561H93.4522V26.7617Z" fill="#CE0002"/>
<path d="M82.8614 9.89062H80.7666V11.985H82.8614V9.89062Z" fill="white"/>
<path d="M12.1039 51.08V49.8001H10.8238V51.08V52.3599V53.6398V54.9197V56.1996V57.4796V58.7595H12.1039V60.0394H10.8238H9.54362H8.26345H6.98329V58.7595H8.26345V57.4796V56.1996V54.9197V53.6398V52.3599V51.08V49.8001H6.98329V51.08H5.70312V49.8001V48.5202V47.2402H6.98329H8.26345H9.54362H10.8238H12.1039H13.3841V48.5202V49.8001V51.08H12.1039Z" fill="black"/>
<path d="M22.1126 59.9233H20.8324H19.5522H18.2721H16.9919V58.6434H15.8281V57.3634V56.0835V54.8036V53.5237V52.2438H17.1083V50.9639H18.3885H19.6686H20.9488H22.2289H23.5091V52.2438H24.7893V53.5237V54.8036V56.0835V57.3634V58.6434H23.5091V59.9233H22.1126ZM20.9488 58.6434H22.2289V57.3634V56.0835V54.8036V53.5237V52.2438H20.9488H19.6686H18.3885V53.5237V54.8036V56.0835V57.3634V58.6434H19.6686H20.9488Z" fill="black"/>
<path d="M32.2377 63.6467H30.9575H29.7937H28.5136H27.2334V62.3667H28.5136H29.7937H30.9575H32.2377V61.2032H33.5178V59.9233H32.2377H30.9575H29.7937H28.5136V58.6434H27.2334V57.3634V56.0835V54.8036V53.5237V52.2438V50.9639H28.5136H29.7937V52.2438V53.5237V54.8036V56.0835V57.3634V58.6434H30.9575H32.2377H33.5178V57.3634V56.0835V54.8036V53.5237V52.2438V50.9639H34.798H36.0782V52.2438V53.5237V54.8036V56.0835V57.3634V58.6434V59.9233V61.2032H34.798V62.4831H33.5178V63.763L32.2377 63.6467Z" fill="black"/>
<path d="M43.6425 59.9231H42.3623V58.6432V57.3633H43.6425H44.9226V58.6432V59.9231H43.6425Z" fill="black"/>
<path d="M56.2114 59.923H54.9312H53.651H52.3709H51.0907V58.6431H49.8105V57.3632V56.0833H51.0907H52.3709V57.3632V58.6431H53.651H54.9312H56.2114V57.3632V56.0833V54.8034H54.9312V53.5235H53.651H52.3709V52.2435H51.0907V50.9636H49.8105V49.6837V48.4038H51.0907V47.2402H52.3709H53.651H54.9312H56.2114H57.4915V48.5202H58.7717V49.8001V51.08H57.4915H56.2114V49.8001V48.5202H54.9312H53.651H52.3709V49.8001V51.08H53.651V52.3599H54.9312H56.2114V53.6398H57.4915V54.9197H58.7717V56.1996V57.4796V58.7595H57.4915V60.0394L56.2114 59.923Z" fill="black"/>
<path d="M67.6166 59.923H66.3365H65.0563V58.6431H63.7761V57.3632V56.0833V54.8034V53.5235V52.2435H62.496H61.2158V50.9636H62.496H63.7761V49.6837V48.4038H65.0563V47.2402H66.3365V48.5202V49.8001V51.08H67.6166H68.8968V52.3599H67.6166H66.3365V53.6398V54.9197V56.1996V57.4796V58.7595H67.6166V57.4796H68.8968H70.177V58.7595H68.8968V60.0394L67.6166 59.923Z" fill="black"/>
<path d="M76.4616 59.9233H75.1814H73.9013H72.6211V58.6434H73.9013V57.3634V56.0835V54.8036V53.5237V52.2438H72.6211V50.9639H73.9013H75.1814V52.2438H76.4616V50.9639H77.7418H79.0219H80.3021V52.2438H81.5822V53.5237V54.8036H80.3021H79.0219V53.5237V52.2438H77.7418V53.5237H76.4616V54.8036V56.0835V57.3634V58.6434H77.7418V59.9233H76.4616Z" fill="black"/>
<path d="M90.31 59.9233H89.0298H87.7497H86.4695H85.1893V58.6434H83.9092V57.3634V56.0835V54.8036V53.5237V52.2438H85.1893V50.9639H86.4695H87.7497H89.0298H90.31H91.5902V52.2438H92.8703V53.5237V54.8036H91.5902H90.31H89.0298H87.7497H86.4695V56.0835V57.3634V58.6434H87.7497H89.0298H90.31V57.3634H91.5902H92.8703V58.6434H91.5902V59.9233H90.31ZM89.0298 53.6401H90.31V52.3601H89.0298H87.7497H86.4695V53.6401H87.7497H89.0298Z" fill="black"/>
<path d="M102.995 59.9233H101.715V58.6434H100.435V57.3634V56.0835V54.8036H99.1549H97.8748V56.0835V57.3634V58.6434H99.1549H100.435V59.9233H99.1549H97.8748H96.5946V58.6434H95.3145V57.3634V56.0835V54.8036H96.5946V53.5237H97.8748H99.1549H100.435V52.2438H99.1549H97.8748H96.5946V50.9639H97.8748H99.1549H100.435H101.715V52.2438H102.995V53.5237V54.8036V56.0835V57.3634V58.6434H104.276V59.9233H102.995Z" fill="black"/>
<path d="M110.56 58.6434V57.3634V56.0835V54.8036V53.5237H109.28V54.8036V56.0835V57.3634V58.6434V59.9233H108H106.72V58.6434V57.3634V56.0835V54.8036V53.5237V52.2438V50.9639H108H109.28H110.56V52.2438H111.84V50.9639H113.121H114.401V52.2438H115.681V53.5237V54.8036V56.0835V57.3634V58.6434V59.9233H114.401H113.121V58.6434V57.3634V56.0835V54.8036V53.5237H111.84V54.8036V56.0835V57.3634V58.6434H110.56Z" fill="black"/>
</g>
</g>
<defs>
<clipPath id="clip0_1543_1019">
<rect width="120.219" height="66.7883" fill="white"/>
</clipPath>
</defs>
</svg>
